<svg xmlns="http://www.w3.org/2000/svg" width="1200" height="900" viewBox="0 0 1200 900" fill="none">
  <defs>
    <linearGradient id="skyB" x1="150" y1="50" x2="980" y2="880" gradientUnits="userSpaceOnUse">
      <stop stop-color="#B4B8F2"/>
      <stop offset="1" stop-color="#E3E6FF"/>
    </linearGradient>
    <linearGradient id="neonB" x1="600" y1="420" x2="600" y2="900" gradientUnits="userSpaceOnUse">
      <stop stop-color="#C8EFE8" stop-opacity="0.45"/>
      <stop offset="1" stop-color="#C8EFE8" stop-opacity="0.12"/>
    </linearGradient>
  </defs>
  <rect width="1200" height="900" fill="url(#skyB)"/>
  <rect y="420" width="1200" height="480" fill="url(#neonB)"/>

  <rect x="120" y="330" width="120" height="420" fill="#8E95C6"/>
  <rect x="260" y="270" width="150" height="480" fill="#9AA1D4"/>
  <rect x="440" y="210" width="170" height="540" fill="#A7AEE0"/>
  <rect x="650" y="250" width="130" height="500" fill="#939ACA"/>
  <rect x="810" y="180" width="180" height="570" fill="#AEB4E6"/>
  <rect x="1030" y="300" width="90" height="450" fill="#8F96C8"/>

  <rect x="465" y="240" width="120" height="12" fill="#CFF8F1"/>
  <rect x="835" y="208" width="130" height="12" fill="#CFF8F1"/>
  <rect x="285" y="302" width="90" height="10" fill="#FFD8EC"/>

  <path d="M0 900L170 720L300 780L430 700L590 820L760 730L960 830L1200 690V900H0Z" fill="#7E84B4"/>

  <text x="64" y="838" fill="#4B547E" font-size="44" font-family="Verdana, sans-serif">Candidate B · Soft pastel city</text>
</svg>
